<?xml version="1.0" encoding="utf-8"?>
<!-- Generator: Adobe Illustrator 25.0.1, SVG Export Plug-In . SVG Version: 6.00 Build 0)  -->
<svg version="1.0" id="Layer_1" xmlns="http://www.w3.org/2000/svg" xmlns:xlink="http://www.w3.org/1999/xlink" x="0px" y="0px"
	 viewBox="0 0 338.6 264.7" style="enable-background:new 0 0 338.6 264.7;" xml:space="preserve">
<style type="text/css">
	.st0{fill-rule:evenodd;clip-rule:evenodd;}
</style>
<g>
	<path class="st0" d="M190.4,213.8c-0.5,2.8-0.2,5,2,7c3.5,3.1,3.3,3.2,0.1,6.4c-0.5,0.5-0.9,0.9-1.6,1.6c1.5,1.4,2.8,2.8,4.2,4.1
		c0.4,0.4,0.8,0.8,1.3,1.3c0.8,0.8,1.2,1.7,0.3,2.7c-0.9,0.8-1.8,0.5-2.5-0.3c-1.4-1.4-2.8-2.8-4.2-4.2c-0.4-0.4-0.6-1-1.2-2
		c-1.5,1.7-2.4,2.8-3.4,3.9c-1,1.1-2.2,1.2-3.1,0c-2.6-3.7-6.1-4.3-10.3-4c-3.9,0.3-7.8,0.1-11.7,0c-0.7,0-1.6-0.4-2.2-0.9
		c-2-1.9-4-4-6.3-6.3c0,2.6-0.7,4.8,1.5,6.7c2.2,1.8,4,4,6,5.9c0.6,0.6,1.6,1,2.5,1c8.4,0.1,16.8,0,25.2,0c0.4,0,0.8,0,1.3,0
		c1.1,0,1.9,0.5,1.9,1.7c0,1.2-0.8,1.6-2,1.6c-3.4,0-6.7,0-10.1,0c-5.9,0-11.7,0.1-17.6-0.1c-0.9,0-2-0.6-2.8-1.2
		c-2-1.8-3.8-3.8-6.1-6c0,1.8,0,3.1,0,4.5c0,1.3,0.1,2.8-1.7,2.8c-1.7,0-1.6-1.5-1.6-2.7c0-1.4,0-2.7,0-4.6
		c-2.1,2.1-3.8,3.8-5.5,5.5c-0.4,0.4-0.8,1.1-1.3,1.2c-0.7,0.2-1.6,0.1-2.4,0.1c0-0.8-0.2-1.9,0.2-2.4c2.1-2.3,4.2-4.7,6.6-6.6
		c2.4-1.9,2.7-4.2,2.2-7.2c-0.5,0.4-0.9,0.7-1.2,1.1c-4.9,4.9-9.7,9.8-14.6,14.6c-0.6,0.6-1.5,0.9-2.3,1c-2.8,0.1-5.5,0-8.3,0.1
		c-1.7,0-2.4-0.7-2.4-2.4c0-2.9,0-5.9-0.1-8.8c0-2-1.3-3.2-3.1-3.3c-1.8,0-3,1.2-3.1,3.2c-0.1,2.9,0,5.9-0.2,8.8
		c0,0.8-0.5,1.8-1.1,2.2c-1,0.7-2.1-0.3-2.2-1.9c-0.1-3,0-6-0.2-9c-0.1-2.2-1.3-3.4-3.2-3.3c-1.8,0.1-3,1.4-3,3.5c0,2.8,0,5.5,0,8.3
		c0,2.2-0.4,2.6-2.7,2.6c-5.8,0-11.6,0-17.4,0c-2.1,0-2.5-0.4-2.5-2.5c0-2.6,0-5.2,0-7.7c0-2.1,0.5-2.6,2.7-2.6c0.6,0,1.3,0,1.9,0
		c0.3-2.4,0.6-4.6,1-6.9c-0.9,0.1-1.9,0.3-3,0.5c-1.2,0.1-2.3,0-2.4-1.4c-0.1-1.4,1-1.7,2.2-1.9c5-0.7,8.1-4.7,7.2-9.4
		c-0.7-3.5-3.6-6.1-7.1-6.4c-2.2-0.2-2.4-0.4-2.4-2.7c0-5.8,0-11.5,0-17.3c0-2.3,0.4-2.7,2.7-2.7c2.6,0,5.3,0,7.9,0
		c1.2,0,2.3,0.3,2.2,1.7c0,1.3-1.1,1.5-2.2,1.5c-2.4,0-4.8,0-7.3,0c0,5.4,0,10.6,0,16c5.3,0,10.5,0,15.9,0c0-1.9,0-3.7,0-5.5
		c0-0.7,0-1.3,0-2c0-1.1,0.3-2,1.5-2c1.3,0,1.7,0.9,1.7,2.1c0,1.9,0,3.7,0,5.6c0,0.6,0,1.2,0,2c2.2,0,4.2,0.1,6.2-0.1
		c0.5,0,1.1-0.6,1.4-1.1c1.2-1.9,2.3-3.9,3.5-5.9c1.1-1.8,2.3-1.8,3.4,0c1.1,1.9,2.2,3.8,3.5,5.9c2.5-2.5,5.2-4.8,7.3-7.5
		c0.8-1,0.3-3,0.4-4.6c-0.2-0.1-0.3-0.2-0.5-0.3c-1.6,1.7-3.3,3.4-4.9,5.1c-0.4,0.4-0.8,1-1.3,1.2c-0.7,0.3-1.8,0.5-2.3,0.2
		c-1-0.6-0.7-1.7,0-2.5c2.3-2.3,4.6-4.6,6.9-6.9c4.2-4.2,3.3-4.2,7.5,0c1.9,1.9,3.7,3.7,5.6,5.6c0.1,0.1,0.2,0.1,0.2,0.1
		c5-5,9.9-9.9,15-15c-0.6,0-1.1-0.1-1.6-0.1c-4.1,0-8.3,0-12.4-0.1c-0.8,0-1.9-0.4-2.2-1c-0.2-0.5,0.3-1.7,0.8-2.3
		c2.1-2.3,4.4-4.4,6.6-6.6c-1.5-0.9-2.8-1.8-4.4-2.7c0,0.4-0.1,0.7-0.1,1c0,1.1-0.5,2-1.6,1.9c-1.3,0-1.7-0.9-1.6-2.1
		c0-1.5,0-3.1,0-5.1c-2.5,2.5-4.7,4.6-6.8,6.8c-0.2,0.2-0.1,0.7-0.1,1.1c0,1.7,0,3.4,0,5.1c0,0.6,0.1,1.3,0.5,1.6
		c1.2,1.3,2.5,2.6,3.8,3.8c0.8,0.8,1.5,1.7,0.5,2.8c-1.1,1.2-2,0.3-2.9-0.5c-1.3-1.3-2.5-2.6-3.8-3.8c-0.3-0.3-0.9-0.6-1.3-0.6
		c-1.9,0.1-3.8,0.2-5.9,0.4c-0.9,5.1-4,8.6-9.6,9.7c-0.5,0.1-0.9,0.7-1.2,1.1c-1.2,1.9-2.3,3.9-3.4,5.9c-1.1,1.9-2.4,1.9-3.5,0
		c-1.1-1.9-2.2-3.8-4-6.2c-0.5,0.8-0.9,1.6-1.5,2.2c-3.3,3.3-6.6,6.7-9.9,9.9c-0.5,0.5-1.6,0.9-2.3,0.7c-0.5-0.1-0.9-1.3-0.9-2
		c-0.1-2.5,0-4.9,0-7.4c0-1.1,0.3-2.1,1.6-2.1c1.3,0,1.7,1,1.7,2.1c0,1.2,0,2.4,0,3.9c0.5-0.4,0.9-0.6,1.2-0.9
		c2.9-2.9,5.7-5.8,8.7-8.6c1-0.9,2.3-1.6,3.2-2.2c-0.7-1.9-1.7-4.1-2.3-6.4c-0.5-2.2,0.2-2.8,2.5-2.8c2.3,0,4.5,0,7,0
		c0-2.5,0-4.7,0-7c0-2.3,0.6-2.7,2.8-2.5c2.7,0.2,4.3,1.1,7.2,3.6c3.1-3.8,5.1-4.4,9.3-2.9c3.1-3.1,6.3-6.2,9.4-9.3
		c0.4-0.4,1-1.1,1.4-1c2.1,0.3,2.5-1.1,3.2-2.5c1-2.2,2.9-3.4,5.3-4c0.3-1.2,0.5-2.1,0.9-2.9c0.1-0.2,1.6-0.2,1.7,0.1
		c0.4,0.8,0.4,1.7,0.6,2.8c2.6,0.6,4.9,2.3,5.8,5.4c0.5,1.5,1.3,1.2,2.1,0.4c1.9-1.8,3.7-3.6,5.6-5.6c-1.5-0.4-2.7-0.8-2.1-2.7
		c-0.2-0.1-0.4-0.2-0.6-0.3c-0.5,0.7-0.9,1.6-1.6,2c-0.6,0.4-1.8,0.5-2.3,0.2c-1-0.6-0.7-1.7,0.1-2.5c0.4-0.5,0.9-1,1.4-1.5
		c-0.5-1-1-1.9-1.6-3.1c-0.8,0.8-1.4,1.6-2.2,2.1c-0.7,0.4-1.8,0.6-2.3,0.2c-1-0.6-0.7-1.7,0.1-2.5c0.2-0.3,0.5-0.5,0.8-0.8
		c1.9-1.7,3.5-3.4,3.9-6.2c0.2-1.5,1.4-2.9,2.3-4.7c-0.7,0.6-1.3,0.9-1.7,1.3c-5.6,5.5-11.1,11.1-16.7,16.6
		c-0.4,0.4-0.7,0.9-1.2,1.1c-0.6,0.2-1.6,0.2-1.9-0.1c-0.4-0.5-0.4-1.4-0.3-2c0.1-0.4,0.7-0.8,1-1.2c6-6,11.9-12,17.9-17.9
		c0.4-0.4,1-0.9,1.5-0.9c3.7,0,7.4-0.1,11.1,0.2c1.8,0.1,3.5,1.1,5.5,1.7c0.3-0.3,0.8-0.9,1.4-1.3c0.6-0.3,1.6-0.6,1.9-0.3
		c0.8,0.9,1.6,0.3,2.4,0.2c1.6-0.1,3.3,0,5.2,0c2-1.9,4.3-4.2,6.8-6.7c-0.7-0.1-1.3-0.1-1.8-0.1c-4.1,0-8.2,0.1-12.2-0.1
		c-0.8,0-2.1-0.5-2.3-1.1c-0.2-0.6,0.4-1.8,1-2.4c2.5-2.6,5.1-5.1,7.4-7.4c-1.9-1.9-3.6-3.7-5.6-5.7c0,1.7,0,3.3,0,4.9
		c0,1.1-0.3,2-1.5,2c-1.3,0-1.7-0.9-1.7-2c0-2.9-0.1-5.9,0-8.8c0-0.6,0.5-1.6,1-1.7c0.6-0.2,1.6,0.1,2,0.5c2.1,2,4.2,4.1,6.6,6.6
		c0-2.1,0-3.6,0-5.2c0-1.4,0-2.8,0-4.1c0-1.1-0.2-2.3,1.1-2.7c1.5-0.5,2,0.8,2.6,1.7c1.5,2.3,3.1,4.6,4.6,6.9
		c0.3,0.5,0.7,0.9,1.3,1.8c0-4.3,0.1-8,0-11.8c0-1.7,0.4-3.1,1.7-4.3c1.9-1.7,3.4-3.7,5.4-5.3c2.5-2,3.2-4.3,2.4-7.5
		c-2,2-3.9,4-6,5.9c-0.6,0.5-1.6,1.1-2.2,1c-0.6-0.1-1.1-1.2-1.3-2c-0.4-1.6-1.7-2.7-3.4-2.6c-1.6,0.1-2.7,1.2-2.8,3
		c-0.1,2.7-0.1,5.4-0.1,8.1c0,0.5,0.2,1.2-0.1,1.6c-0.4,0.7-1.1,1.2-1.7,1.7c-0.5-0.6-1.3-1-1.5-1.7c-0.3-0.9-0.1-1.9-0.1-2.9
		c0-2.3,0-4.6-0.1-6.8c-0.1-1.8-1.2-2.9-2.9-3c-1.7-0.1-2.9,1-3.2,2.7c0,0.2,0,0.4,0,0.5c-0.6,0.5-1.3,1-1.9,1.5
		c-0.5-0.6-1.4-1.3-1.4-1.9c0.1-4.8,5.6-7.7,9.7-5.2c0.5,0.3,1,0.7,1.4,1c3.6-2.6,6.8-3,10.7,1.2c4.7-4.7,9.4-9.4,14.1-14.1
		c0.9-0.9,1.9-1.9,2.8-2.8c0.8-0.8,1.7-1,2.5-0.2c0.9,0.9,0.5,1.8-0.2,2.5c-2.7,2.7-5.4,5.3-7.9,7.8c2.5,2.5,4.9,4.9,7.4,7.3
		c2.2-2.2,4.7-4.6,7.1-7.2c0.5-0.6,0.5-1.7,0.8-2.9c-1.2,0-2.1,0-3,0c-1.4,0-2.1-0.7-2.1-2.1c0-2.9,0-5.9,0-8.8
		c0-1.4,0.7-2.1,2.1-2.1c0.8,0,1.7,0,2.6,0c0-2.9,0-5.6,0-8.8c-2.1,2.1-4,4-5.9,5.9c-6.6,6.6-13.2,13.2-19.8,19.9
		c-1.1,1.1-2,1.1-3.1,0c-2-2.1-4-4.1-6-6.1c-0.2,0-0.3,0.1-0.5,0.1c0,1.4,0,2.8,0,4.2c0,1.2,0,2.5-1.6,2.5c-1.7,0-1.7-1.4-1.7-2.6
		c0-1.4,0-2.7,0-4.1c-0.2-0.1-0.3-0.2-0.5-0.3c-1.9,2-3.8,4-5.7,6.1c-0.9,0.9-1.8,1.6-2.9,0.5c-1.1-1.1-0.4-2,0.6-2.9
		c2.1-2,4-4.3,6.3-6.2c2.3-1.9,2.7-4.2,2.1-7.2c-1.8,1.8-3.5,3.5-5.1,5.1c-0.4,0.4-0.8,1-1.3,1.2c-0.7,0.3-1.8,0.5-2.3,0.2
		c-1-0.6-0.7-1.7,0.1-2.5c1.5-1.5,3-3.1,4.6-4.6c0.6-0.5,1.2-1,1.8-1.5c-0.1-0.2-0.2-0.4-0.2-0.6c-1.4,0-2.8,0-4.2,0
		c-1.3,0-2.8,0.1-2.8-1.6c0-1.8,1.4-1.7,2.7-1.7c5.4,0,10.9,0,16.4,0c0-2.2,0-4.2,0-6.4c-1.3,0-2.6,0-3.9,0c-4.4,0-8.7,0-13.1,0
		c-1.2,0-2.1-0.3-2.2-1.6c0-1.4,1-1.7,2.2-1.7c6.5,0,13.1,0,19.6,0c0.7,0,1.4,0,2.3,0c0-1.2-0.1-2.2,0-3.2c0.2-3.8,3-6.5,6.6-6.4
		c3.6,0.1,6.2,2.9,6.3,6.7c0,0.9,0,1.8,0,2.7c1.6,0.5,2.8,0.2,3.9-1c2.4-2.5,4.9-4.9,7.3-7.4c1.4-1.4,2-1.5,3.4-0.1
		c2.9,2.9,5.7,5.8,8.6,8.7c0.8,0.8,1.4,1.8,0.4,2.8c-1,1-1.9,0.4-2.6-0.4c-2-2-4-4.1-6.3-6.4c-0.2,2.9-0.5,5.2,1.9,7.1
		c2.1,1.7,3.8,3.8,5.5,5.5c5.1-5.1,10.1-10,15.1-15.1c-1.5,0-3.1,0-4.7,0c-1.1,0-2-0.4-2-1.6c0-1.3,0.9-1.7,2.1-1.7
		c2.9,0,5.9,0,8.8,0c1.4,0,1.9,0.6,1.9,2c0,3,0,6,0,9c0,1.1-0.4,1.9-1.6,1.9c-1.2,0-1.6-0.9-1.6-2c0-1.6,0-3.2,0-4.7
		c-5,5-9.9,10-14.8,14.9c1.5,1.5,3.2,3.2,5.1,5c0-1.5,0-3,0-4.4c0-1.1,0.2-2.3,1.6-2.3c1.5,0,1.6,1.1,1.7,2.3c0,1.5,0,3,0,5
		c2.4-2.4,4.4-4.5,6.5-6.4c0.6-0.5,1.9-0.8,2.4-0.5c1.2,0.7,0.8,1.8-0.1,2.7c-2,2-4.1,4-6.1,6c0.1,0.2,0.1,0.3,0.2,0.5
		c1.5,0,2.9,0,4.4,0c1.1,0,2.3,0.1,2.3,1.6c0,1.5-1.1,1.7-2.2,1.7c-1.5,0-2.9,0-4.4,0c-0.1,0.2-0.2,0.3-0.2,0.5
		c1.7,1.7,3.5,3.4,5.2,5.1c0.4,0.4,1,0.7,1.1,1.2c0.2,0.8,0.1,1.6,0.1,2.4c-0.8,0-1.9,0.2-2.4-0.2c-1.8-1.5-3.4-3.2-5-4.9
		c-0.4-0.5-0.7-1.1-1.3-1.5c-0.6,2.6-0.9,4.8,1.4,6.7c2.4,2,4.5,4.4,6.8,6.7c0.8,0.8,1.5,1.8,0.5,2.8c-1,1-1.9,0.4-2.8-0.4
		c-2.6-2.6-5.2-5.2-8-8c-2.7,2.7-5.2,5.2-7.7,7.7c-1.7,1.7-2.3,1.7-3.9-0.1c-1.8-1.9-3.7-3.8-5.9-6.1c0,2.8-0.7,5,1.5,6.8
		c2.2,1.8,4,4,6,5.9c0.6,0.6,1.6,1,2.5,1c5.5,0.1,10.9,0.1,16.4,0c1.7,0,2.4,0.5,2.3,2.3c-0.1,2.8,0,5.5-0.1,8.3
		c0,0.9-0.4,1.9-1,2.5c-2.8,3-5.7,5.8-8.6,8.7c-0.5,0.5-1.4,0.6-2.2,0.8c-0.3,0.1-0.6-0.1-0.9-0.1c-7-0.3-7-0.3-12,4.7
		c-8.1,8.1-16.2,16.2-24.3,24.3c-0.4,0.4-0.8,0.8-1,1.5c2.5-1.3,5.1-2.5,7.6-3.8c1.1-0.5,2.4-1.8,3.5-0.3c1.2,1.6-0.5,2.5-1.4,3.4
		c-2.5,2.5-5,5-7.5,7.5c-0.9,0.9-1.8,2.1-3.1,0.8c-1.2-1.2-0.1-2.2,0.7-3c0.3-0.3,0.5-0.6,0.6-1.2c-2.6,1.3-5.2,2.6-7.7,3.9
		c-0.3,0.2-0.5,0.9-0.5,1.4c-0.1,2.2,0.1,4.4-0.1,6.6c-0.1,0.9-0.5,1.9-1,2.5c-2.8,3-5.7,5.8-8.6,8.7c-0.5,0.5-1.4,0.9-2.2,0.9
		c-2.8,0.1-5.9-0.7-8.3,0.3c-2.4,1-4.1,3.7-6.1,5.7c-3.3,3.3-6.6,6.6-10.1,10.1c1.4,0.4,2.6,0.8,3.9,1.2c0.2-0.2,0.3-0.6,0.6-0.7
		c0.6-0.2,1.3-0.6,1.7-0.4c0.5,0.3,1.1,1.1,1,1.6c-0.2,1,0.2,1.3,0.9,1.9c2.1,1.9,4.1,3.9,6.4,6.2c-0.1,0,0.3-0.2,0.6-0.1
		c0.6,0.2,1.4,0.4,1.6,0.8c0.2,0.5,0,1.6-0.3,1.9c-0.9,0.6-0.6,1.1-0.4,1.9c0.4,1.5,0.8,3.1,1.2,5c3.1,0,6.4,0,9.7,0
		c0.7,0,1.4,0,2.2,0c1.2-0.1,2.6,0,2.5,1.5c0,0.8-1.1,1.5-1.8,2.4c1.5,1.5,3.3,3.4,5.2,5.1c0.4,0.4,1.2,0.5,1.8,0.5
		c5.1,0,10.2,0,15.3,0c0.7,0,1.5-0.2,1.9-0.7c1.9-1.7,3.6-3.5,5.3-5.7c-0.6,0-1.2,0-1.8,0c-7.3,0-14.6,0-21.9,0
		c-2.3,0-2.8-0.8-1.9-2.9c0.1-0.3,0.2-0.5,0.2-0.8c-0.2-4.3-0.4-8.7-0.6-13c0-1.4,0.9-2.7,0.1-4.2c-0.5-1,1-1.8,2.3-1.4
		c0.5,0.2,1.2,0.3,1.8,0.1c4.5-1.3,8.4,1.4,8.7,6.1c0.1,2.2,0.1,4.3,0,6.5c-0.1,2.1-0.2,4.1-0.4,6.3c2,0,4.2,0,6.6,0
		c0.1-0.6,0.1-1.1,0.1-1.6c0-5.1,0-10.2,0-15.3c0-1.5,0.5-2.4,2.2-2.4c6.1,0,12.1,0,18.2,0.1c0.6,0,1.4,0.3,1.9,0.7
		c0.3,0.2,0.4,1.2,0.2,1.4c-0.4,0.5-1.1,1-1.7,1c-3.5,0.1-7.1,0-10.6,0.1c-2.1,0-4.3,0-6.6,0c0,2.1,0,4.1,0,6.4c0.6,0,1.2,0,1.9,0
		c5,0,9.9,0,14.9,0c1.7,0,2.4,0.7,2.3,2.4c-0.1,2.3,0,4.7,0,7.2c2.1,0,4.1,0,6.4,0c0-0.7,0-1.4,0-2.2c0-3.1,0-6.1,0-9.2
		c0-1.2-0.3-2.8,1.6-2.8c1.9,0,1.7,1.5,1.7,2.8c0,3.8,0,7.5,0,11.5c2.1,0,4.1,0,6.3,0c0-0.6,0.1-1.2,0.1-1.9c0-4.8,0-9.6,0-14.4
		c0-1.2-0.1-2.6,1.7-2.6c1.7,0.1,1.6,1.5,1.6,2.7c0,5.8,0,11.5,0,17.3c0,1.8-0.5,2.3-2.4,2.3c-8.6,0-17.3,0-25.9,0
		c-1.2,0-2.1,0.4-3,1.3c-1.5,1.6-3.1,3.1-5.1,5c1.2,0.1,1.8,0.1,2.4,0.1c10.1,0,20.1,0,30.2,0c0.5,0,1,0,1.4,0
		c1.2,0,2.3,0.2,2.3,1.7c0,1.4-1.2,1.6-2.4,1.6c-5.5,0-10.9,0-16.4,0c-0.8,0-1.8,0.5-2.5,1c-1.8,1.5-3.4,3.2-5.3,5
		c3.7,0.6,2,3.4,2.7,5.3c1.3,0.1,2.7,0.1,4.1,0.2c0.3-0.5,0.5-1,0.9-1.8c-0.7-0.1-1.4,0.1-1.8-0.2c-0.7-0.4-1.7-0.9-1.8-1.6
		c-0.2-1.1,0.8-1.6,1.9-1.7c1.7-0.1,3.4-0.1,5-0.1c4.3,0,8.6,0,12.9,0c2.1,0,2.6,0.5,2.6,2.6c0,2.3,0,4.6,0,6.8
		c0,2.3-0.6,4.5-0.2,6.9c0.4,2.3-1.1,4.3-3.3,5.5c-2.2,1.1-4.4,1-6.5-0.3c-0.5-0.3-0.9-0.6-1.4-1c-2.2,2-4.7,2.5-7.6,1.5
		c-0.8-0.3-1.9,0.5-2.8,0.5c-2.6,0.1-5.2,0-7.7,0c-3.3,0-6.6,0-9.9,0c-2.2,0-2.6-0.4-2.6-2.6c0-5.4,0-10.9,0-16.6c-1,0-1.9,0-2.7,0
		c-4.9,0-9.8,0.1-14.7,0c-0.6,0-1.3-0.5-1.8-1C194.5,217.9,192.5,215.9,190.4,213.8z M234.8,97.1c0.2-0.1,0.3-0.1,0.5-0.2
		c0-3.7,0-7.4,0-11.1c0-0.4-0.1-0.9-0.3-1.2c-1.9-1.9-3.9-3.8-6-5.9c0,1.9,0,3.4,0,5c0,1.1-0.4,2.1-1.7,2.1c-1.2,0-1.6-0.9-1.5-2
		c0-1.6,0-3.2,0-5.1c-0.6,0.5-0.8,0.7-1.1,0.9c-8.1,8.1-16.2,16.1-24.3,24.2c-2,2-2.5,1.9-4.1-0.4c-1.9-2.8-3.7-5.6-5.6-8.4
		c-0.4,2.6-0.3,5.1-0.4,7.6c0,0.9-0.4,2-1,2.6c-1.8,2-3.9,3.8-6.1,6c1,0.1,1.4,0.2,1.9,0.2c3.4,0,6.8-0.1,10.2,0
		c1.2,0,1.7-0.4,2.1-1.6c2.2-7.2,10.5-10.4,16.6-6.3c2.1,1.4,3.6,3.7,5.2,5.4c1.7-1.7,3.7-3.7,5.5-5.5c-1.6-1.8-3.4-3.6-5.2-5.6
		c0,1.7,0,3.2,0,4.6c0,1.2-0.2,2.3-1.6,2.3c-1.4,0-1.7-1.1-1.7-2.3c0-1.5,0-3,0-4.5c-0.2-0.1-0.4-0.2-0.6-0.3
		c-0.4,0.6-0.8,1.2-1.3,1.7c-0.7,0.8-1.6,1.1-2.5,0.3c-0.9-0.8-0.6-1.7,0.2-2.5c0.8-0.9,1.7-1.7,2.5-2.6c3.4-3.4,2.9-4,6.8,0
		c1.4,1.4,2.8,2.8,4.6,4.5c0-3.5,0-6.4,0-9.4c0-1.1-0.2-2.5,1.2-2.6c0.8,0,1.8,0.8,2.3,1.5C231.1,91.5,232.9,94.3,234.8,97.1z
		 M184.4,201.6c-1.9,0-3.5,0-5,0c-1.5,0-2.1-0.6-2.2-2.1c-0.4-9.2-6.9-16.1-16.1-17.2c-1.2-0.1-2.7,0.4-3.2-1.3
		c-0.5-1.6,1.1-1.9,1.9-2.7c5.6-5.6,11.2-11.2,16.7-16.8c0.4-0.4,0.9-1.1,0.9-1.7c0.1-2.1,0-4.1,0-6.1c-0.5-0.2-0.6-0.3-0.7-0.3
		c-1.7,0-3.4,0-5,0c-3.9,0-3.9,0-3.9-3.8c0-1,0-2,0-2.9c-1.8,1.9-3.6,3.6-5.4,5.5c2.4,2.4,5,5,7.6,7.6c1.5,1.5,1.4,1.9-0.1,3.4
		c-5.8,5.8-11.7,11.7-17.5,17.6c0.3,0.3,0.5,0.6,0.8,0.9c2.2,2.2,4.4,4.4,6.6,6.6c0.3,0.3,0.9,0.4,1.4,0.5c4.8,0.9,8.6,4.6,9.4,9.4
		c0.1,0.5,0.1,1,0.4,1.3c2.5,2.6,5.1,5.1,7.6,7.6C180.6,205.2,182.4,203.5,184.4,201.6z M151.9,184.5c-0.7,3.4-0.1,5.7,2.3,7.7
		c2.3,1.8,4.2,4.1,6.3,6.2c0.4,0.5,1,1.3,0.8,1.8c-0.7,2.2-1.3,4.5-2.4,6.4c-1.5,2.5-4.2,3.8-7.1,4.4c0,2.2,0,4.2,0,6.5
		c1.1,0,2.1-0.2,3,0.1c0.6,0.2,1.5,0.8,1.6,1.4c0.1,0.5-0.6,1.2-1.1,1.7c-0.2,0.2-0.5,0.2-1.2,0.4c1.9,1.8,3.6,3.5,5.4,5.1
		c0.6,0.5,1.4,0.9,2.2,0.9c5.2,0.1,10.3,0.1,15.5,0c0.7,0,1.6-0.4,2.2-0.9c1.9-1.7,3.5-3.8,5.5-5.4c2.4-1.9,2.4-4.2,2.1-7
		c-2.2,2.1-4.1,4.2-6.2,6.1c-0.6,0.5-1.4,1-2.1,1c-6,0.1-12.1,0-18.1,0c-0.7,0-1.9-0.5-2-1c-0.2-0.6,0.2-1.7,0.7-2.3
		c2.2-2.4,4.5-4.8,7-7c2.2-1.9,1.7-4,1.5-6.7c-2.2,2.3-4.2,4.2-6.1,6.2c-0.8,0.8-1.7,1.6-2.8,0.6c-1.1-1.1-0.4-2,0.5-2.9
		c2.5-2.5,4.9-4.9,7.4-7.3c0.8-0.8,1-1.6,0.7-2.6c-1-3.1-3-5.2-6.2-5.7c-1.5-0.2-2.7-0.8-3.8-2C155.6,188.2,153.8,186.6,151.9,184.5
		z M148.3,211.1c-4.4-1.3-7.4-3.2-8.4-6.6c-0.9-3-2.5-3.3-5-3c-1,0.1-2,0-3.1,0c-3,0-5.9,0-9,0c0,2.2,0,4.2,0,6.4c4.6,0,9,0,13.4,0
		c1.4,0,2.8-0.1,4.1,0.1c0.6,0.1,1.4,0.9,1.5,1.5c0.1,0.4-0.8,1.2-1.4,1.5c-0.5,0.3-1.2,0.1-1.8,0.1c-5.3,0-10.5,0-15.9,0
		c0,2.2,0,4.1,0,6.3c0.8,0,1.4,0,2.1,0c4.9,0,9.8,0,14.7-0.1c1.6,0,2.5,0.6,2.4,2.3c-0.1,1.6,0,3.1,0,4.9c1.4-1.4,2.5-2.4,3.3-3.2
		c-0.6-1-1.6-1.9-1.5-2.7c0.1-1.5,1.6-1.2,2.7-1.3c0.6,0,1.2-0.1,1.8-0.1C148.3,215.2,148.3,213.2,148.3,211.1z M232.5,211.7
		c-0.1-0.2-0.2-0.3-0.3-0.5c-0.6,0-1.3,0-1.9,0c-8.7,0-17.5-0.3-26.2,0.1c-4.8,0.2-8.6-0.8-11.4-4.8c-0.6-0.9-1.5-1.5-2.4-2.3
		c-0.7,3.1,0,5.4,2.4,7.3c1.9,1.5,3.4,3.4,5.1,5c0.6,0.5,1.4,1,2.2,1c8.4,0.1,16.9,0,25.3,0c0.5,0,1.1-0.1,1.5-0.4
		C228.8,215.3,230.6,213.5,232.5,211.7z M177.5,127.6c-4.2,4.2-8.6,8.6-12.8,12.8c2.8,0,6-0.1,9.3,0.1c0.6,0,1.2,1,1.8,1.5
		c-0.6,0.6-1.1,1.4-1.8,1.6c-0.9,0.3-1.9,0.1-2.9,0.1c0,2.2,0,4.2,0,6.4c2.3,0,4.5,0,6.7,0c0.4,0,0.9-0.4,1.2-0.7
		c2.9-2.9,5.9-5.8,8.7-8.7c-0.3-1.4-0.6-2.7-0.9-4.1c-0.5,0.5-1,0.9-1.5,1.4c-1.7,1.7-3.3,3.5-5.1,5c-0.5,0.4-1.5,0.1-2.3,0.2
		c0-0.8-0.1-1.7,0.2-2.4c0.2-0.5,0.8-0.9,1.2-1.3c1.6-1.6,3.3-3.2,5-5C179,133.1,177.6,131.6,177.5,127.6z M244.7,59.3
		c-2,2-3.7,3.8-5.4,5.5c-0.9,0.9-1.9,2.5-3.4,1.1c-1.6-1.5,0.2-2.5,1.1-3.5c1.7-1.8,3.5-3.5,5.6-5.6c-2,0-3.4,0-4.9,0
		c-1.1,0-2.3-0.1-2.3-1.6c0-1.6,1.2-1.7,2.4-1.7c1.4,0,2.9,0,4.2,0c-4.4-4.4-8.7-8.7-12.9-12.9c0,2.5,0,5.3,0,8.1c0.9,0,1.6,0,2.3,0
		c1.7-0.1,2.4,0.7,2.3,2.4c-0.1,2.7,0,5.4,0,8.1c0,2-0.4,2.4-2.4,2.5c-0.8,0-1.5,0-2.6,0c0.2,1.2,0.1,2.3,0.7,2.9
		c2.4,2.6,4.9,5,7.6,7.7c2-2.1,3.7-4.2,5.8-5.9C245.1,64.6,245.1,62.3,244.7,59.3z M103.5,206.4c0,3.7,0,7.3,0,10.9
		c5.3,0,10.5,0,15.7,0c0-3.7,0-7.3,0-10.9C114,206.4,108.8,206.4,103.5,206.4z M228.9,94.4c0,3.1,0.1,5.6,0,8.2c0,0.9-0.4,1.9-1,2.5
		c-2.4,2.6-5,5-7.4,7.6c-0.6,0.7-1.2,1.6-1.4,2.6c-1.1,4.8-4.5,8.1-9.3,9.1c-0.5,0.1-1.1,0.2-1.5,0.5c-3.1,3-6.2,6.1-9.1,9.1
		c0.3,1.4,0.6,2.6,0.8,3.4c11.4-11.4,23-23,34.6-34.6c-1.5-2.3-3.2-4.8-4.8-7.3C229.6,95.3,229.4,95,228.9,94.4z M208.2,110.8
		c0.6-0.7,1.2-1.4,1.8-2c0.8-0.8,1.8-1.1,2.4-0.1c0.3,0.5,0.2,1.7-0.2,2.3c-0.7,1-1.7,1.8-2.6,2.7c-1.4,1.3-2.1,1.4-3.5,0
		c-1.6-1.6-3.1-3.2-4.7-4.9c-2.4,3.3-1.8,7.8,1.3,10.4c3.2,2.7,8,2.5,10.9-0.5c2.9-3,3-7.8,0.2-10.9c-2.6-2.9-7.1-3.5-10-1.3
		C205.2,107.8,206.6,109.2,208.2,110.8z M144.6,168.8c0.1,0.2,0.2,0.3,0.2,0.5c4.5,0,9,0,13.4,0c0.4,0,0.8-0.2,1.1-0.4
		c1.9-1.8,3.7-3.6,5.4-5.2c-0.7-0.9-1.8-1.6-1.7-2.1c0.1-0.8,1-1.5,1.4-2c-1.2-1.3-2.5-2.7-3.8-4.2c-1.8,4.2-4.7,6.9-9.3,7.6
		c-0.4,0.1-0.9,0.3-1.2,0.6C148.3,165.2,146.5,167,144.6,168.8z M230.2,236.7c0-5.3,0-10.5,0-15.8c-3.7,0-7.3,0-11,0
		c0,5.3,0,10.5,0,15.8C222.9,236.7,226.5,236.7,230.2,236.7z M113.1,163.3c0,1.9,0,3.8,0,5.7c0,3.4-0.1,3.5-3.6,3.5
		c-1.9,0-3.8,0-5.7,0c0.6,3.9,4.1,6.6,8.1,6.3c3.9-0.2,7.2-3.5,7.4-7.4C119.5,167.4,116.9,163.9,113.1,163.3z M84.2,230.5
		c0,2.1,0,4.1,0,6.2c5.3,0,10.5,0,15.8,0c0-2.1,0-4.1,0-6.2C94.7,230.5,89.5,230.5,84.2,230.5z M190.9,49.9
		c-0.2,0.1-0.4,0.2-0.6,0.3c0.2,1.6-0.2,3.6,0.6,4.7c2.2,2.8,4.9,5.1,7.2,7.4c5.1-5.1,10-10,14.9-14.9c-2.4-0.2-4.6-0.4-6.5,2
		c-1.9,2.4-4.3,4.4-6.4,6.5c-1.4,1.4-2,1.5-3.4,0C194.7,53.9,192.8,51.9,190.9,49.9z M235.1,192c-5.4,0-10.5,0-15.8,0
		c0,2.1,0,4.1,0,6.2c5.3,0,10.5,0,15.8,0C235.1,196,235.1,194.1,235.1,192z M215.7,37.7c-5.3,0-10.5,0-15.8,0c0,2.1,0,4.1,0,6.2
		c5.3,0,10.5,0,15.8,0C215.7,41.8,215.7,39.8,215.7,37.7z M199.8,190.2c0,0.8,0,1.6,0,2.3c0,0.8,0,1.6,0,2.3c0.1,2,1.2,3.2,3.1,3.3
		c1.8,0,3.2-1.1,3.2-3.1c0.1-3.2,0.1-6.5,0-9.7c-0.1-1.9-1.6-3.2-3.3-3.1c-1.7,0.1-3,1.4-3.1,3.3
		C199.8,187.1,199.8,188.7,199.8,190.2z M254.3,220.9c-3.8,0-7.5,0-11.1,0c-0.3,0-0.7,0.2-0.9,0.5c-1,1.8-1.9,3.7-2.8,5.6
		c5.1,0,9.9,0,14.8,0C254.3,225,254.3,223.1,254.3,220.9z M190.5,128.1c0.5-0.5,0.9-0.8,1.3-1.3c1.7-1.7,3.4-3.4,5.1-5.1
		c0.8-0.8,1.8-1.1,2.5-0.1c0.4,0.5,0.1,1.6-0.1,2.4c-0.1,0.4-0.6,0.7-1,1c-1.9,1.8-3.7,3.7-5.7,5.6c1.5,0.3,2.8,0.6,3.6,0.8
		c2.8-2.7,5.3-5.1,8-7.7c-3.3-1.4-5.7-3.7-6.9-7c-2.6,2.6-5.1,5.2-7.7,7.7C189.9,125.6,190.2,126.8,190.5,128.1z M210,69.1
		c-0.2,0.1-0.4,0.2-0.5,0.2c0.2,1.6-0.3,3.6,0.6,4.6c2.2,2.8,5,5.2,7.7,7.8c2.2-2.2,4.1-4.5,6.3-6.3c2.2-1.9,1.5-4,1.5-6.7
		c-2.2,2.2-4,4-5.8,5.8c-2,2.1-2.3,2.1-4.3,0.1C213.7,72.9,211.8,71,210,69.1z M140.4,197.6c2.2-2.2,4-4.4,6.2-6.2
		c2.3-1.9,1.8-4.1,1.6-6.9c-2.2,2.3-4.1,4.2-6,6.2c-1.7,1.8-2.2,1.7-3.9,0c-1.9-1.9-3.8-3.8-5.7-5.7c-0.2,0.1-0.4,0.2-0.6,0.3
		c0.3,1.6,0,3.7,0.9,4.9C135.1,192.7,137.8,195,140.4,197.6z M209.6,78.9c0,1.7,0.1,3.2,0,4.8c-0.1,0.7-0.4,1.5-0.9,2
		c-2.3,2.4-4.6,4.9-7.2,7c-2.3,1.9-1.6,4.1-1.7,6.3c5.1-5,10-10,15-14.9C213.2,82.4,211.5,80.7,209.6,78.9z M186.8,204.3
		c-0.2,0.1-0.4,0.1-0.4,0.2c-1.9,1.9-3.7,3.7-5.6,5.6c-1.7,1.7-2.1,1.7-3.8,0c-1.9-1.9-3.8-3.8-5.7-5.8c-0.2,0.1-0.4,0.2-0.6,0.2
		c0.2,1.6-0.1,3.6,0.7,4.7c2.2,2.7,4.9,5,7.6,7.7c1.7-1.8,3.2-3.7,5-5.2C186.6,209.8,187.4,207.4,186.8,204.3z M100.1,202
		c-3.6,0.5-6.3,3.9-6.3,7.7c0.1,3.7,2.8,7,6.3,7.4C100.1,212.1,100.1,207.1,100.1,202z M98.8,227c0.9,0.3,1.5,0.2,2-0.9
		c1.3-2.7,3.9-4.1,6.8-3.6c1.4,0.3,2.6,1.1,4,1.7c4.4-2.7,6.5-2.5,10,0.9c1.6-1.3,3.1-2.7,4.8-4.1c-9.8-0.5-19.3,0.5-28.5-0.6
		C98.2,222.5,98.5,224.7,98.8,227z M162.4,136.3c3.6-3.6,7.2-7.2,10.8-10.7c-2.7-1.9-6.9-1.4-9.5,1.1
		C161,129.3,160.5,133.5,162.4,136.3z M157.6,201.6c-5.1,0-10.1,0-15.2,0c0.6,3.6,3.7,6.1,7.6,6.1
		C153.9,207.8,157,205.3,157.6,201.6z M142.4,153.4c0.6,3.8,3.8,6.2,7.9,6.2c3.6-0.1,6.8-2.7,7.2-6.2
		C152.5,153.4,147.5,153.4,142.4,153.4z M128.9,236.7c0-2.1,0-4.1,0-6.2c-2.1,0-4.1,0-6.1,0c0,2.1,0,4.1,0,6.2
		C124.9,236.7,126.8,236.7,128.9,236.7z M224.2,52.1c0,2.1,0,4.2,0,6.2c2.1,0,4.1,0,6.1,0c0-2.1,0-4.1,0-6.2
		C228.2,52.1,226.3,52.1,224.2,52.1z M238.7,101.7c2,0,4,0,6,0c0-2.1,0-4.1,0-6.2c-2.1,0-4,0-6,0C238.7,97.6,238.7,99.6,238.7,101.7
		z M186.9,159.6c0-2.2,0-4.1,0-6.2c-2.1,0-4,0-6,0c0,2.1,0,4.1,0,6.2C182.9,159.6,184.8,159.6,186.9,159.6z M188.8,221.9
		c-2.5,2.4-4.8,4.8-7,7c0.5,0.7,1.2,1.5,1.9,2.3c2.4-2.5,4.7-4.9,6.9-7.3C190.1,223.3,189.4,222.4,188.8,221.9z M211,34.3
		c-0.2-2.2,0.8-4.7-1.8-5.9c-0.9-0.4-2.5-0.3-3.3,0.3c-2,1.4-1.2,3.6-1.3,5.6C206.9,34.3,208.8,34.3,211,34.3z M95.3,227.1
		c-0.2-2.2,0.8-4.6-1.7-5.7c-0.9-0.4-2.5-0.3-3.3,0.2c-2.1,1.3-1.2,3.5-1.3,5.6C91.2,227.1,93.1,227.1,95.3,227.1z M200.1,89.7
		c1.7-1.7,3-3.3,4.6-4.6c2.3-1.8,1.6-4,1.4-6.2c-1.4,1.2-2.5,2.7-3.9,3.7C199.8,84.4,199.5,86.7,200.1,89.7z M225.3,30.1
		c-1.5,1.7-2.7,3.4-4.2,4.6c-2.4,1.8-2.1,4.1-1.8,7.1c1.4-1.5,2.4-2.8,3.6-3.7C225.3,36.2,226.3,33.9,225.3,30.1z M138.5,223.1
		c-1.6,1.6-2.7,3.2-4.2,4.3c-2.4,1.8-2,4.1-1.6,6.7c1.4-1.1,2.3-2.6,3.7-3.6C138.8,228.7,139.1,226.3,138.5,223.1z M241.3,91.9
		c0,0.1,0.1,0.3,0.1,0.4c1.6-0.1,3.5,0.3,4.6-0.5c2.2-1.5,3.9-3.7,5.9-5.6c-0.1-0.1-0.1-0.3-0.2-0.4c-1.6,0.1-3.5-0.3-4.6,0.5
		C244.9,87.7,243.2,89.9,241.3,91.9z M183.3,149.6c0.1,0.2,0.2,0.4,0.3,0.6c1.6-0.1,3.5,0.2,4.6-0.5c2.2-1.5,3.8-3.6,5.7-5.5
		c-0.1-0.2-0.1-0.4-0.2-0.6c-1.6,0.2-3.5-0.2-4.7,0.6C186.9,145.6,185.2,147.7,183.3,149.6z M248.5,99.5c1.5-1.6,2.6-3.2,4-4.3
		c2.5-1.8,2.1-4.2,1.9-7c-1.5,1.5-2.5,2.9-3.9,3.9C248.1,93.9,247.8,96.2,248.5,99.5z M251.2,230.6c-1.8,0-3.2,1.4-3.1,3.1
		c0,1.7,1.5,3.1,3.1,3.1c1.7,0,3.2-1.4,3.2-3.1C254.4,231.9,253,230.6,251.2,230.6z M187,127.7c0-1.8-1.4-3.2-3.2-3.1
		c-1.7,0-3,1.4-3,3.1c0,1.8,1.4,3.2,3.1,3.2C185.6,130.9,187,129.5,187,127.7z M241.6,230.6c-1.9,0-3.1,1.2-3.1,3.1
		c0,1.7,1.3,3.1,3,3.1c1.7,0,3.2-1.4,3.3-3.1C244.8,231.9,243.4,230.6,241.6,230.6z M125.9,163c-1.8,0-3.2,1.4-3.2,3.1
		c0,1.8,1.4,3.2,3.2,3.1c1.7,0,3.1-1.4,3.1-3C129.1,164.4,127.7,163,125.9,163z M193.3,140.4c1.9,0.1,3.3-1.1,3.4-2.9
		c0.1-1.8-1.1-3.1-2.9-3.3c-1.8-0.1-3.3,1.1-3.4,2.9C190.3,139,191.5,140.3,193.3,140.4z M198.2,52.4c1.7-1.7,3.4-3.4,5-5
		c-3.2,0-6.6,0-9.9,0C195,49.2,196.7,50.9,198.2,52.4z M190.6,157.2c1.6-1.6,2.9-3.3,4.4-4.5c2.3-1.8,1.5-4,1.3-6.3
		c-1.3,1.1-2.3,2.4-3.6,3.4C190.4,151.6,189.9,154,190.6,157.2z M135.9,221.4c-0.1-0.2-0.2-0.4-0.2-0.6c-1.6,0.2-3.5-0.2-4.7,0.6
		c-2.1,1.4-3.8,3.5-5.7,5.2c0.1,0.2,0.2,0.4,0.3,0.6c1.6-0.2,3.5,0.2,4.7-0.6C132.4,225.3,134.1,223.2,135.9,221.4z M103.3,202.5
		c0.1,0.2,0.3,0.3,0.4,0.5c5.2,0,10.3,0,15.5,0c0.1-0.2,0.2-0.3,0.3-0.5c-0.4-0.3-0.8-0.8-1.2-0.9c-4.6-0.1-9.2-0.1-13.8,0
		C104.1,201.6,103.7,202.1,103.3,202.5z M145.9,149.9c2.8,0,5.5,0,8.3,0c-0.7-2.1-2.1-3.2-4.3-3.1
		C147.8,146.8,146.4,147.9,145.9,149.9z M234.2,225.8c-0.1,0.2-0.3,0.3-0.4,0.5c0,3.5,0,7,0,10.5c0.2,0.1,0.3,0.2,0.5,0.3
		c0.3-0.4,0.8-0.8,0.8-1.2c0.1-3,0.1-6,0-9C235.1,226.5,234.5,226.1,234.2,225.8z M125.4,198.1c1.3,0,2.4,0,3.5,0c0-1.3,0-2.4,0-3.6
		C127.7,195.8,126.6,196.9,125.4,198.1z M135.7,198.2c-1-1.1-2.1-2.3-3.2-3.6c0,1.3,0,2.4,0,3.6
		C133.6,198.2,134.7,198.2,135.7,198.2z M148.3,198.2c0-1.3,0-2.4,0-3.3c-1.2,1.1-2.3,2.1-3.7,3.3
		C145.9,198.2,147,198.2,148.3,198.2z M155.1,198.2c-1.2-1.2-2.3-2.3-3.3-3.4c0,1,0,2.2,0,3.4C153,198.2,154.1,198.2,155.1,198.2z
		 M238.7,85.9c0,1.3,0,2.4,0,3.4c1.1-1.2,2.2-2.3,3.3-3.4C241,85.9,239.9,85.9,238.7,85.9z M164,217.4c1.2,0,2.3,0,3.4,0
		c0-1.2,0-2.3,0-3.4C166.3,215.1,165.2,216.2,164,217.4z M174.4,217.4c-1.2-1.2-2.3-2.2-3.4-3.3c0,1,0,2.1,0,3.3
		C172.2,217.4,173.3,217.4,174.4,217.4z M108.5,182.4c-1.3,0-2.4,0-3.8,0c0.6,1.1,1.2,2.1,1.8,3.2
		C107.2,184.5,107.8,183.5,108.5,182.4z M116.2,194.8c-0.7,1.3-1.2,2.2-1.7,3.3c1.3,0,2.3,0,3.6,0
		C117.4,196.9,116.9,196,116.2,194.8z M93.8,217.6c-0.7-0.8-1.2-1.4-1.7-2.1c-0.6,0.7-1.1,1.4-1.7,2.1
		C91.6,217.6,92.6,217.6,93.8,217.6z M90.5,201.6c0.6,0.8,1.1,1.3,1.6,1.9c0.5-0.7,0.9-1.2,1.5-1.9
		C92.5,201.6,91.7,201.6,90.5,201.6z"/>
	<path class="st0" d="M87.6,47.3c-1.5,0-3.1,0-4.6,0c-1.1,0-2.1-0.4-2.1-1.7c0-1.3,1-1.6,2.1-1.6c4.3,0,8.6,0,12.9,0
		c1.1,0,2.3-0.2,2.5,1.3c0.3,1.5-0.8,1.9-2.1,2.2c1.6,1.5,3.1,2.9,4.6,4.3c3.8-3.6,5.9-3.9,10.4-1c4.5-2.9,6.7-2.7,10.5,1.1
		c1.4-1.4,2.8-2.9,4.4-4.5c-0.7,0-1.4-0.1-2-0.1c-7.2,0-14.4,0-21.6,0c-2.2,0-2.6-0.4-2.6-2.6c0-6-0.1-12-0.1-18c0-1.3,0.5-2,1.9-2
		c12.6,0,25.3,0,37.9,0c1.2,0,2.1,0.4,2,1.7c0,1.2-0.9,1.5-2,1.5c-5.6,0-11.3,0-17.1,0c0,2.1,0,4.2,0,6.4c4.4,0,8.8-0.1,13.1,0.1
		c2.6,0.1,4.5-0.5,6.2-2.6c1.9-2.2,4.1-4.2,6.2-6.3c1.1-1.1,2.1-1.2,3.2,0c2.9,3,5.9,5.9,8.9,8.9c0.8,0.8,1.3,1.7,0.4,2.6
		c-1,1-1.9,0.6-2.8-0.3c-2-2.1-4-4.1-6.3-6.3c-0.2,2.7-0.6,5,1.7,6.8c2.1,1.6,3.7,3.8,5.7,5.5c0.7,0.6,1.8,1.1,2.8,1.2
		c3.8,0.1,7.7,0.1,11.5,0c1.2,0,2.3,0.2,2.3,1.6c0,1.4-1,1.7-2.2,1.7c-1,0-2,0-2.6,0c-0.2,2.1-0.5,4.1-0.7,6.1
		c0,0.4,0.2,0.9,0.5,1.2c1.3,1.4,2.7,2.7,4.1,4.1c0.8,0.8,1.3,1.7,0.3,2.6c-0.9,0.9-1.8,0.5-2.7-0.3c-0.7-0.7-1.5-1.4-2.1-2.2
		c-1.4-1.7-2.8-3-5.4-2c-1,0.4-2.3-0.2-3.6-0.3c0,2.5,0,5.1,0,7.7c0,0.6-0.2,1.2-0.4,1.9c-0.1,0.5-0.2,0.9-0.2,1.4
		c0.1,1.1,0.4,2.2,0.3,3.3c-0.1,1.2-0.9,2.3,0.2,3.5c0.2,0.2-0.2,1.3-0.5,1.5c-0.5,0.3-1.2,0.2-1.8,0.2c-0.6,0-1.3-0.2-1.9-0.2
		c-1.5,0-2.9,0-4.4,0c-0.7,0-1.5,0.1-2,0.4c-1.1,0.9-2.1,1.9-3.4,3.1c1.3,1.2,2.4,2.3,3.5,3.3c0.8,0.8,1.2,1.7,0.2,2.6
		c-0.9,0.8-1.8,0.4-2.5-0.3c-1-1.1-2.1-2.2-3.4-3.6c-1.1,1.2-1.9,2.3-3,3.2c-0.7,0.6-1.6,1.1-2.4,1.1c-12.4,0.1-24.8,0.1-37.2,0
		c-0.8,0-1.7-0.4-2.3-1c-2-1.9-4-4-6.4-5.9c0,1.5,0,3,0,4.5c0,1.2-0.2,2.3-1.6,2.3c-1.4,0-1.6-1.1-1.6-2.3c0-1.5,0-3,0-5
		c-2.2,2.2-4,4-5.8,5.8c-0.9,0.9-1.8,2.4-3.3,1c-1.4-1.4,0-2.3,0.9-3.3c1.8-1.8,3.5-3.8,5.5-5.4c2.4-2,3.3-4.3,2.5-7.5
		c-0.5,0.4-0.9,0.8-1.4,1.3c-1.7,1.6-3.3,3.3-5,5c-0.8,0.8-1.7,1.2-2.7,0.2c-0.9-0.9-0.4-1.8,0.3-2.5c2-2,3.9-4.2,6.1-6.1
		c2.3-2,3.4-4.2,2.5-7.4c-0.3,0.2-0.7,0.5-1,0.7c-1.8,1.8-3.6,3.6-5.3,5.3c-0.8,0.8-1.8,1.2-2.7,0.2c-0.9-0.9-0.4-1.8,0.3-2.5
		c2.1-2.1,4-4.3,6.3-6.2c2.4-1.9,3.1-4.2,2.4-7.4c-1.3,1.3-2.6,2.5-3.8,3.8c-0.9,0.9-1.7,1.9-2.7,2.6c-0.6,0.4-1.8,0.5-2.3,0.2
		c-1-0.6-0.7-1.7,0.1-2.4c2.1-2.1,4.2-4.1,6.3-6.1C87.8,47.6,87.7,47.4,87.6,47.3z M150,47.9c-2.6,2.6-5.1,5-7.5,7.5
		c-0.2,0.2-0.4,0.5-0.4,0.8c0,2.3,0,4.6,0,6.9c5.4,0,10.6,0,16,0c0-2.3,0-4.5,0-6.7c0-0.4-0.3-0.8-0.6-1.1
		C155,52.9,152.5,50.5,150,47.9z M137.2,68.3c1,0,1.8,0,2.7,0c1.5,0,2.2,0.7,2.1,2.2c0,0.8,0,1.6,0,2.3c0,2.3,0,4.6,0,6.9
		c2.5-2,4.5-4,6.6-6.2c0.3-0.3,0.5-0.7,0.5-1c-0.2-2-0.4-3.9-0.6-6.1c-2.1,0-4.7,0-7.2,0c-2,0-2.4-0.4-2.4-2.4c0-2.3,0-4.6,0-7.2
		c-2.5,0-4.7,0-7,0c-2.2,0-2.7-0.5-2.7-2.6c0-1.4,0-2.8,0-4.4c-1.9,1.9-3.6,3.7-5.4,5.6c1.5,1.5,3.2,3,4.7,4.7
		c1.8,2,3.7,3.6,6.7,3.1c1.3-0.2,2.1,0.7,2.1,2C137.2,66.2,137.2,67.2,137.2,68.3z M119.2,43.9c0-4.5,0-8.8,0-13.5
		c-2.2,2.2-4.1,4.2-6,6.2c-1.5,1.5-2.1,1.5-3.5,0c-1.9-2-3.8-4-5.7-6c-0.1,0.1-0.3,0.2-0.4,0.3c0,4.3,0,8.6,0,13.1
		C108.8,43.9,114,43.9,119.2,43.9z M119.3,76.1c-0.7,0-1.3,0-1.9,0c-4.9,0-9.7,0-14.6,0c-1.3,0-2.2-0.4-3.1-1.3
		c-1.8-2-3.6-3.9-5.7-6.1c-0.6,3.3-0.5,5.8,2.1,7.5c0.3,0.2,0.5,0.5,0.8,0.8c1.8,1.8,3.4,4.3,5.6,5.2c2.3,0.9,5.2,0.3,7.8,0.3
		c3,0,6,0,9,0C119.3,80.4,119.3,78.4,119.3,76.1z M122.8,43.8c0.3,0.1,0.6,0.2,0.8,0.2c5,0,10,0,15,0c0.7,0,1.5-0.5,2-1
		c2.1-2,4-4.3,6.3-6.1c2.2-1.8,1.3-4,1.2-6.2c-0.8,0.5-1.3,1.1-1.8,1.8c-3.1,4.3-7.1,5.9-12.4,5.3c-3.6-0.4-7.2-0.1-11-0.1
		C122.8,39.8,122.8,41.8,122.8,43.8z M119.3,66.7c-0.5-0.1-0.9-0.2-1.3-0.2c-5,0-10-0.1-15.1,0c-1.3,0-2.2-0.3-3.1-1.2
		c-1.8-2-3.8-3.8-5.8-5.9c-0.6,3.1-0.1,5.5,2.3,7.4c1.9,1.5,3.4,3.4,5.1,5c0.6,0.6,1.6,1,2.5,1c4.5,0.1,9,0,13.5,0
		c0.6,0,1.3,0,1.9,0C119.3,70.6,119.3,68.7,119.3,66.7z M122.7,82.5c3.8,0,7.4,0,11,0c0-5.3,0-10.6,0-15.8c-3.7,0-7.3,0-11,0
		c0,3.2,0,6.3,0,9.4C122.7,78.1,122.7,80.2,122.7,82.5z M94.2,49.8c-0.1,0.1-0.3,0.2-0.4,0.3c0,0.5,0.1,1.1,0,1.6
		c-0.3,2,0.4,3.5,1.9,4.8c2,1.8,3.8,3.8,5.7,5.7c0.4,0.4,0.9,0.9,1.4,0.9c2.2,0.1,4.5,0,6.8,0c0-2.9,0.1-5.5,0-8.1
		c0-1.8-1.3-2.9-2.9-3c-1.6-0.1-2.8,1.1-3.3,2.7c-0.2,0.8-0.7,1.7-1.4,2c-0.5,0.2-1.5-0.5-2-1C98,53.9,96.1,51.8,94.2,49.8z
		 M126.1,63.2c0.1-0.2,0.1-0.3,0.2-0.5c-1.9-1.8-3.8-3.6-5.6-5.5c-0.7-0.7-1.1-1.7-1.4-2.7c-0.4-1.4-1.7-2.6-3.2-2.5
		c-1.5,0.1-2.8,0.8-2.9,2.4c-0.2,2.8-0.1,5.7-0.1,8.7c3,0,5.9,0,8.8,0C123.4,63.2,124.8,63.2,126.1,63.2z M132.4,53.6
		c1.9,0,3.6-0.1,5.4,0c1.3,0.1,2.3-0.3,3.1-1.3c1.8-1.9,3.6-3.9,5.6-5.5c2.3-1.8,1.9-4.1,1.6-6.8c-2.2,2.2-4,4.2-6.1,6.1
		c-0.7,0.6-1.8,1.1-2.8,1.2c-2.3,0.2-4.6,0.1-7,0.1C132.4,49.5,132.4,51.4,132.4,53.6z M157.8,51c0.3-1.5,0.6-2.7,0.7-3.3
		c-2.5-2.5-4.8-4.7-7-6.9c0.1,1.3-0.3,3.3,0.5,4.4C153.6,47.3,155.8,49.1,157.8,51z M167.6,50.3c0-1.8-1.4-3.1-3.3-3
		c-1.7,0.1-3,1.3-3,3.1c0,1.8,1.4,3.2,3.2,3.1C166.3,53.5,167.6,52.1,167.6,50.3z M111.1,33c1.8-1.8,3.5-3.5,5-5c-3,0-6.4,0-9.8,0
		C108,29.9,109.7,31.6,111.1,33z M154.8,66.7c-1.9,0-3.2,1.3-3.1,3.1c0,1.7,1.4,3,3.1,3.1c1.8,0,3.2-1.4,3.2-3.1
		C158,67.9,156.6,66.6,154.8,66.7z M138.2,82.7c0.2-0.1,0.3-0.2,0.5-0.3c0-3.2,0-6.4,0-9.7c0-0.3-0.4-0.6-0.7-1
		c-0.3,0.3-0.8,0.6-0.8,0.9c-0.1,3-0.1,6,0,9C137.2,81.9,137.9,82.3,138.2,82.7z"/>
	<path class="st0" d="M171.8,113c1.9,1.9,3.6,3.7,5.3,5.4c0.8,0.8,1.5,1.8,0.5,2.8c-1,1.1-2,0.4-2.8-0.4c-1.7-1.8-3.3-3.6-5.5-5.9
		c-1.3,1.5-2.2,2.8-3.2,3.9c-0.9,1.1-1.9,1-2.9,0c-1.4-1.4-2.8-2.8-4.2-4.2c-1-1-0.9-2,0.1-2.9c3-3,5.9-5.9,8.9-8.9c1-1,2-1.1,3.1,0
		c1.3,1.4,2.7,2.7,4.1,4.1c1.2,1.1,1,2.2-0.1,3.2C173.9,110.9,172.9,111.9,171.8,113z M162.4,113c0.7,0.8,1.4,1.6,2.1,2.4
		c2.4-2.5,4.7-4.9,6.8-7.1c-0.5-0.6-1.2-1.4-1.9-2.2C167,108.4,164.7,110.7,162.4,113z"/>
	<path class="st0" d="M123.2,147.3c1.9-2,3.8-3.9,5.8-5.9c0.9-0.9,1.8-1.6,2.9-0.5c1,1,0.3,2-0.5,2.8c-2.8,2.8-5.6,5.7-8.5,8.5
		c-0.6,0.5-1.7,1-2.2,0.8c-0.6-0.2-1-1.4-1.1-2.1c-0.1-2.7-0.1-5.4,0-8.1c0-1.1,0.2-2.3,1.6-2.3c1.6,0,1.7,1.2,1.7,2.4
		c0,1.4,0,2.8,0,4.3C122.8,147.2,123,147.3,123.2,147.3z"/>
	<path class="st0" d="M188.7,24.7c2.9,0,5.9,0,8.8,0c1.2,0,2.3,0.3,2.3,1.7c0,1.4-1.1,1.6-2.3,1.6c-6,0-12.1,0-18.1,0
		c-1.2,0-2.1-0.4-2.1-1.7c0-1.3,0.9-1.6,2.1-1.6C182.5,24.7,185.6,24.7,188.7,24.7z"/>
	<path class="st0" d="M205.5,240c-2.3,0-4.7,0-7,0c-1.1,0-2-0.5-1.8-1.6c0.1-0.6,1.1-1.5,1.7-1.5c4.7-0.1,9.4-0.1,14.2,0
		c0.6,0,1.5,1,1.6,1.6c0.2,1-0.6,1.6-1.7,1.5C210.2,240,207.8,240,205.5,240z"/>
	<path class="st0" d="M167.1,85.8c-2.3,0-4.5,0-6.8,0c-1.2,0-2.1-0.4-2.1-1.7c0-1.3,1-1.6,2.1-1.6c4.5,0,9,0,13.5,0
		c1.2,0,2.1,0.4,2,1.7c0,1.3-0.9,1.6-2.1,1.6C171.5,85.8,169.3,85.8,167.1,85.8z"/>
	<path class="st0" d="M140.4,134.2c-0.5-0.4-1.2-0.7-1.3-1.2c-0.1-0.7,0.1-1.6,0.5-2.1c1.8-1.9,3.7-3.8,5.5-5.6
		c1.2-1.2,2.4-2.4,3.6-3.5c0.8-0.8,1.7-1.1,2.5-0.2c0.8,0.9,0.5,1.8-0.2,2.5c-3,3-6.1,6.1-9.1,9.1
		C141.5,133.6,141,133.8,140.4,134.2z"/>
	<path class="st0" d="M169.3,27.9c-1.6,0-3.1,0.2-4.6-0.1c-0.7-0.1-1.2-1-1.8-1.5c0.6-0.6,1.1-1.5,1.8-1.6c3.1-0.2,6.2-0.2,9.3,0
		c0.6,0,1.6,0.9,1.7,1.6c0.2,1.1-0.7,1.6-1.9,1.6C172.3,27.9,170.8,27.9,169.3,27.9z"/>
	<path class="st0" d="M188.6,182.2c-1.6,0-3.1,0.2-4.7-0.1c-0.7-0.1-1.2-1-1.8-1.5c0.6-0.5,1.2-1.5,1.8-1.6c3.1-0.2,6.2-0.2,9.3,0
		c0.6,0,1.1,1.1,1.7,1.7c-0.6,0.5-1.1,1.4-1.7,1.4C191.8,182.3,190.2,182.2,188.6,182.2z"/>
	<path class="st0" d="M169.5,63.2c1.4,0,2.9,0,4.3,0c1,0,1.9,0.4,2,1.6c0,1.2-0.8,1.6-1.9,1.6c-3,0-6,0-9,0c-1.1,0-2.1-0.5-1.8-1.7
		c0.1-0.6,1.1-1.4,1.8-1.5C166.4,63.1,168,63.2,169.5,63.2C169.5,63.2,169.5,63.2,169.5,63.2z"/>
	<path class="st0" d="M91.9,27.9c-1.5,0-3,0.1-4.5-0.1c-0.6-0.1-1.1-0.9-1.7-1.4c0.6-0.6,1.1-1.6,1.7-1.7c3.2-0.2,6.3-0.2,9.5,0
		c0.6,0,1.1,1,1.6,1.5c-0.6,0.5-1.1,1.5-1.8,1.6C95.2,28.1,93.5,27.9,91.9,27.9z"/>
	<path class="st0" d="M231.9,119.6c-0.4-0.3-1-0.6-1.2-1.1c-0.2-0.5-0.1-1.3,0.2-1.6c1.6-1.7,3.2-3.4,4.9-4.9c0.4-0.4,1.6-0.4,2,0
		c0.4,0.3,0.6,1.6,0.3,2c-1.7,1.9-3.5,3.6-5.3,5.3C232.7,119.5,232.3,119.5,231.9,119.6z"/>
	<path class="st0" d="M180.7,170.9c-0.4,0.6-0.6,1.1-0.9,1.5c-1.4,1.5-2.9,2.9-4.3,4.3c-0.8,0.8-1.7,1.1-2.5,0.2
		c-0.8-0.9-0.5-1.7,0.2-2.5c1.5-1.5,2.9-3,4.5-4.4c0.4-0.4,1.3-0.5,1.9-0.4C180,169.7,180.3,170.4,180.7,170.9z"/>
	<path class="st0" d="M94.4,37.6c-0.8,0-1.6,0.2-2.3-0.1c-0.6-0.3-1.5-1-1.5-1.6c0-0.5,0.9-1.4,1.5-1.5c1.6-0.2,3.2-0.2,4.8,0
		c0.6,0.1,1.5,1,1.5,1.5c0,0.6-0.9,1.3-1.5,1.6C96.2,37.8,95.3,37.6,94.4,37.6z"/>
	<path class="st0" d="M171.6,37.6c-0.8,0-1.6,0.2-2.3-0.1c-0.6-0.3-1.5-1-1.5-1.6c0-0.5,0.9-1.5,1.5-1.5c1.6-0.2,3.2-0.2,4.8,0
		c0.6,0.1,1.5,1,1.5,1.5c0,0.6-0.9,1.3-1.5,1.6C173.4,37.8,172.4,37.6,171.6,37.6z"/>
	<path class="st0" d="M171.7,76.1c-0.8,0-1.6,0.2-2.3-0.1c-0.6-0.2-1.5-1-1.4-1.4c0.1-0.6,0.8-1.6,1.3-1.7c1.7-0.2,3.5-0.2,5.2,0
		c0.5,0.1,1.3,1,1.3,1.6c0,0.5-0.8,1.3-1.4,1.5C173.5,76.3,172.6,76.1,171.7,76.1C171.7,76.1,171.7,76.1,171.7,76.1z"/>
	<path class="st0" d="M210.2,230.4c-0.8,0-1.7,0.2-2.5-0.1c-0.6-0.2-1.4-0.9-1.4-1.5c0-0.5,0.7-1.5,1.2-1.6c1.7-0.2,3.5-0.2,5.1,0
		c0.5,0.1,1.3,1,1.4,1.7c0.1,0.4-0.8,1.2-1.4,1.4C211.9,230.6,211,230.4,210.2,230.4C210.2,230.4,210.2,230.4,210.2,230.4z"/>
	<path class="st0" d="M191.1,188.6c0.8,0,1.6-0.2,2.3,0.1c0.6,0.3,1.4,1,1.5,1.6c0.1,0.4-0.8,1.4-1.4,1.5c-1.7,0.2-3.5,0.2-5.2,0
		c-0.5-0.1-1.3-1-1.3-1.5c0-0.5,0.8-1.3,1.4-1.5C189.3,188.4,190.2,188.6,191.1,188.6C191.1,188.6,191.1,188.6,191.1,188.6z"/>
	<path class="st0" d="M249.8,77.7c0-0.7-0.2-1.5,0.1-2.1c0.2-0.6,0.9-1.3,1.4-1.3c0.6,0,1.6,0.7,1.6,1.2c0.2,1.5,0.2,3.1,0,4.6
		c-0.1,0.5-1.1,1.3-1.6,1.2c-0.5,0-1.2-0.9-1.4-1.5C249.6,79.2,249.8,78.4,249.8,77.7C249.8,77.7,249.8,77.7,249.8,77.7z"/>
	<path class="st0" d="M243.3,77.7c0,0.8,0.2,1.6-0.1,2.3c-0.2,0.6-1.1,1.4-1.5,1.3c-0.6-0.1-1.4-0.9-1.5-1.5c-0.2-1.3-0.3-2.6,0-3.9
		c0.1-0.7,1-1.2,1.6-1.7c0.5,0.6,1.2,1.1,1.6,1.8C243.5,76.4,243.3,77.1,243.3,77.7C243.3,77.7,243.3,77.7,243.3,77.7z"/>
	<path class="st0" d="M248.1,77.8c0,0.7,0.2,1.5-0.1,2.1c-0.3,0.6-1,1.3-1.5,1.4c-0.4,0.1-1.4-0.7-1.5-1.2c-0.2-1.5-0.2-3.1,0-4.6
		c0.1-0.5,1.1-1.2,1.6-1.2c0.5,0,1.2,0.8,1.4,1.4C248.3,76.3,248.1,77.1,248.1,77.8C248.1,77.8,248.1,77.8,248.1,77.8z"/>
	<path class="st0" d="M82.6,33.7c0.7,1.1,1.5,1.7,1.4,2.3c-0.1,0.6-0.9,1.1-1.5,1.6C82,37,81.1,36.5,81,35.8
		C80.9,35.3,81.8,34.7,82.6,33.7z"/>
	<path class="st0" d="M164.4,33.7c0.8,1,1.7,1.7,1.6,2.1c-0.1,0.7-1,1.2-1.5,1.7c-0.5-0.5-1.4-1-1.5-1.6
		C162.9,35.4,163.7,34.7,164.4,33.7z"/>
	<path class="st0" d="M198,231.1c-0.7-1.1-1.4-1.8-1.3-2.4c0.1-0.6,1-1,1.6-1.5c0.5,0.6,1.4,1.1,1.4,1.7
		C199.7,229.4,198.9,230,198,231.1z"/>
	<path class="st0" d="M84.7,26.2c-1,0.8-1.6,1.7-2.1,1.6c-0.7-0.1-1.2-1-1.8-1.5c0.5-0.5,1-1.4,1.6-1.5C83,24.7,83.7,25.5,84.7,26.2
		z"/>
	<path class="st0" d="M181.3,84c-1,0.8-1.6,1.6-2.2,1.6c-0.6,0-1.5-0.9-1.5-1.4c0-0.5,0.8-1.5,1.4-1.6
		C179.6,82.6,180.2,83.4,181.3,84z"/>
	<path class="st0" d="M186.1,190.3c-1.1,0.7-1.7,1.5-2.3,1.4c-0.6-0.1-1.5-1-1.4-1.5c0-0.5,0.9-1.4,1.5-1.5
		C184.4,188.7,185,189.5,186.1,190.3z"/>
	<path class="st0" d="M203,231.1c-0.8-1.1-1.6-1.7-1.5-2.3c0.1-0.6,1-1.1,1.5-1.6c0.5,0.5,1.4,1,1.5,1.6
		C204.6,229.3,203.8,230,203,231.1z"/>
	<path class="st0" d="M229.6,122.7c-1,0.7-1.7,1.5-2.2,1.5c-0.6,0-1.5-0.9-1.5-1.4c0-0.6,0.9-1.5,1.4-1.6
		C227.8,121.2,228.5,122,229.6,122.7z"/>
	<path class="st0" d="M161.9,26.3c-1,0.7-1.7,1.5-2.3,1.5c-0.6,0-1.5-1-1.5-1.5c0-0.5,0.9-1.5,1.5-1.5
		C160.2,24.8,160.9,25.6,161.9,26.3z"/>
	<path class="st0" d="M178.9,182.9c-0.8-1.1-1.6-1.8-1.5-2.3c0.1-0.6,1-1.1,1.5-1.6c0.5,0.5,1.4,1,1.5,1.6
		C180.5,181.2,179.7,181.8,178.9,182.9z"/>
	<path class="st0" d="M89.6,36c-1.1,0.7-1.8,1.5-2.3,1.5c-0.6-0.1-1.5-1-1.5-1.6c0-0.5,0.9-1.4,1.5-1.4C87.9,34.4,88.5,35.2,89.6,36
		z"/>
	<path class="st0" d="M164.5,76.8c-0.7-1.1-1.5-1.8-1.4-2.3c0.1-0.6,1-1,1.6-1.6c0.5,0.6,1.3,1.1,1.4,1.7
		C166.1,75.1,165.3,75.8,164.5,76.8z"/>
	<path class="st0" d="M224.7,225.2c-0.7,0-1.5,0.2-2.1-0.1c-0.6-0.2-1-0.8-1.4-1.3c0.5-0.4,0.9-1,1.4-1.1c1.5-0.1,3-0.1,4.5,0
		c0.5,0,0.9,0.7,1.3,1.1c-0.4,0.4-0.8,1.1-1.3,1.2C226.3,225.4,225.5,225.2,224.7,225.2C224.7,225.2,224.7,225.2,224.7,225.2z"/>
	<path class="st0" d="M224.7,230c-0.8,0-1.7,0.1-2.5-0.1c-0.4-0.1-1-0.7-1-1.2c-0.1-0.3,0.6-1,0.9-1.1c1.7-0.1,3.5-0.1,5.2,0
		c0.4,0,0.9,0.8,0.9,1.2c0,0.4-0.7,0.9-1.1,1C226.3,230.1,225.5,230,224.7,230C224.7,230,224.7,230,224.7,230z"/>
	<path class="st0" d="M224.7,232.5c0.8,0,1.7-0.1,2.5,0c0.4,0.1,1,0.7,1,1c0,0.5-0.5,1.2-0.9,1.2c-1.7,0.1-3.5,0.1-5.2,0
		c-0.4,0-1-0.8-0.9-1.2c0-0.4,0.7-0.9,1.2-1C223.1,232.3,223.9,232.4,224.7,232.5C224.7,232.5,224.7,232.5,224.7,232.5z"/>
	<path class="st0" d="M128.3,68.5c0.8,0,1.6-0.1,2.3,0c0.5,0.1,1.1,0.6,1.2,1c0,0.4-0.6,1.2-0.9,1.2c-1.7,0.1-3.5,0.1-5.2,0
		c-0.4,0-0.9-0.8-0.9-1.3c0-0.3,0.6-0.9,1-1C126.6,68.4,127.5,68.5,128.3,68.5C128.3,68.5,128.3,68.5,128.3,68.5z"/>
	<path class="st0" d="M128.2,80.5c-0.8,0-1.6,0.1-2.3-0.1c-0.4-0.1-1.1-0.7-1.1-1.1c0-0.4,0.6-1.1,1-1.1c1.7-0.1,3.3-0.1,5,0
		c0.4,0,1,0.7,1,1c-0.1,0.5-0.5,1.1-1,1.2C130,80.6,129.1,80.5,128.2,80.5C128.2,80.5,128.2,80.5,128.2,80.5z"/>
	<path class="st0" d="M128.2,75.7c-0.8,0-1.6,0.1-2.3,0c-0.5-0.1-1.1-0.7-1.1-1.1c0-0.4,0.6-1.2,1-1.2c1.7-0.1,3.3-0.1,5,0
		c0.4,0,1,0.8,1,1.2c0,0.4-0.6,1-1.1,1.1C129.9,75.8,129,75.7,128.2,75.7z"/>
</g>
</svg>
